<mxfile host="app.diagrams.net" agent="Mozilla/5.0 (Windows NT 10.0; Win64; x64) AppleWebKit/537.36 (KHTML, like Gecko) Chrome/130.0.0.0 Safari/537.36" version="24.8.3">
  <diagram name="Page-1" id="2YBvvXClWsGukQMizWep">
    <mxGraphModel grid="1" page="1" gridSize="10" guides="1" tooltips="1" connect="1" arrows="1" fold="1" pageScale="1" pageWidth="850" pageHeight="1100" math="0" shadow="0">
      <root>
        <mxCell id="0" />
        <mxCell id="1" parent="0" />
        <mxCell id="aM9ryv3xv72pqoxQDRHE-1" value="Usuario" style="shape=umlLifeline;perimeter=lifelinePerimeter;whiteSpace=wrap;html=1;container=0;dropTarget=0;collapsible=0;recursiveResize=0;outlineConnect=0;portConstraint=eastwest;newEdgeStyle={&quot;edgeStyle&quot;:&quot;elbowEdgeStyle&quot;,&quot;elbow&quot;:&quot;vertical&quot;,&quot;curved&quot;:0,&quot;rounded&quot;:0};" vertex="1" parent="1">
          <mxGeometry x="285" y="-780" width="100" height="500" as="geometry" />
        </mxCell>
        <mxCell id="aM9ryv3xv72pqoxQDRHE-2" value="" style="html=1;points=[];perimeter=orthogonalPerimeter;outlineConnect=0;targetShapes=umlLifeline;portConstraint=eastwest;newEdgeStyle={&quot;edgeStyle&quot;:&quot;elbowEdgeStyle&quot;,&quot;elbow&quot;:&quot;vertical&quot;,&quot;curved&quot;:0,&quot;rounded&quot;:0};" vertex="1" parent="aM9ryv3xv72pqoxQDRHE-1">
          <mxGeometry x="45" y="70" width="10" height="400" as="geometry" />
        </mxCell>
        <mxCell id="aM9ryv3xv72pqoxQDRHE-5" value="Sistema" style="shape=umlLifeline;perimeter=lifelinePerimeter;whiteSpace=wrap;html=1;container=0;dropTarget=0;collapsible=0;recursiveResize=0;outlineConnect=0;portConstraint=eastwest;newEdgeStyle={&quot;edgeStyle&quot;:&quot;elbowEdgeStyle&quot;,&quot;elbow&quot;:&quot;vertical&quot;,&quot;curved&quot;:0,&quot;rounded&quot;:0};" vertex="1" parent="1">
          <mxGeometry x="465" y="-780" width="95" height="500" as="geometry" />
        </mxCell>
        <mxCell id="aM9ryv3xv72pqoxQDRHE-6" value="" style="html=1;points=[];perimeter=orthogonalPerimeter;outlineConnect=0;targetShapes=umlLifeline;portConstraint=eastwest;newEdgeStyle={&quot;edgeStyle&quot;:&quot;elbowEdgeStyle&quot;,&quot;elbow&quot;:&quot;vertical&quot;,&quot;curved&quot;:0,&quot;rounded&quot;:0};" vertex="1" parent="aM9ryv3xv72pqoxQDRHE-5">
          <mxGeometry x="42.5" y="80" width="10" height="390" as="geometry" />
        </mxCell>
        <mxCell id="aM9ryv3xv72pqoxQDRHE-7" value="Selecciona producto" style="html=1;verticalAlign=bottom;endArrow=block;edgeStyle=elbowEdgeStyle;elbow=vertical;curved=0;rounded=0;" edge="1" parent="1" source="aM9ryv3xv72pqoxQDRHE-2" target="aM9ryv3xv72pqoxQDRHE-6">
          <mxGeometry relative="1" as="geometry">
            <mxPoint x="440" y="-690" as="sourcePoint" />
            <Array as="points">
              <mxPoint x="440" y="-680" />
              <mxPoint x="425" y="-700" />
            </Array>
          </mxGeometry>
        </mxCell>
        <mxCell id="aM9ryv3xv72pqoxQDRHE-8" value="Mostrar(&quot;Agregar al carrito&quot;)" style="html=1;verticalAlign=bottom;endArrow=open;dashed=1;endSize=8;edgeStyle=elbowEdgeStyle;elbow=vertical;curved=0;rounded=0;" edge="1" parent="1">
          <mxGeometry relative="1" as="geometry">
            <mxPoint x="340" y="-640" as="targetPoint" />
            <Array as="points">
              <mxPoint x="435" y="-640" />
            </Array>
            <mxPoint x="510" y="-640" as="sourcePoint" />
          </mxGeometry>
        </mxCell>
        <mxCell id="bP6IVyQULpmqRJZdpL5X-1" value="Actor" style="shape=umlActor;verticalLabelPosition=bottom;verticalAlign=top;html=1;outlineConnect=0;" vertex="1" parent="1">
          <mxGeometry x="290" y="-770" width="20" height="20" as="geometry" />
        </mxCell>
        <mxCell id="bP6IVyQULpmqRJZdpL5X-4" value="Verifica si el producto tiene existencia" style="shape=note;size=20;whiteSpace=wrap;html=1;" vertex="1" parent="1">
          <mxGeometry x="580" y="-870" width="100" height="100" as="geometry" />
        </mxCell>
        <mxCell id="bP6IVyQULpmqRJZdpL5X-5" value="" style="endArrow=none;dashed=1;html=1;dashPattern=1 3;strokeWidth=2;rounded=0;entryX=0.07;entryY=0.96;entryDx=0;entryDy=0;entryPerimeter=0;" edge="1" parent="1" source="aM9ryv3xv72pqoxQDRHE-6" target="bP6IVyQULpmqRJZdpL5X-4">
          <mxGeometry width="50" height="50" relative="1" as="geometry">
            <mxPoint x="530" y="-690" as="sourcePoint" />
            <mxPoint x="630" y="-700" as="targetPoint" />
          </mxGeometry>
        </mxCell>
        <mxCell id="bP6IVyQULpmqRJZdpL5X-6" value="ops" style="shape=umlFrame;whiteSpace=wrap;html=1;pointerEvents=0;" vertex="1" parent="1">
          <mxGeometry x="200" y="-720" width="410" height="240" as="geometry" />
        </mxCell>
        <mxCell id="bP6IVyQULpmqRJZdpL5X-7" value="Si el producto&amp;nbsp;&lt;div&gt;tiene existencia&lt;/div&gt;" style="text;html=1;align=center;verticalAlign=middle;resizable=0;points=[];autosize=1;strokeColor=none;fillColor=none;" vertex="1" parent="1">
          <mxGeometry x="230" y="-680" width="110" height="40" as="geometry" />
        </mxCell>
        <mxCell id="bP6IVyQULpmqRJZdpL5X-8" value="ops" style="shape=umlFrame;whiteSpace=wrap;html=1;pointerEvents=0;" vertex="1" parent="1">
          <mxGeometry x="200" y="-480" width="410" height="130" as="geometry" />
        </mxCell>
        <mxCell id="bP6IVyQULpmqRJZdpL5X-9" value="Si no hay&lt;div&gt;existencia&lt;/div&gt;" style="text;html=1;align=center;verticalAlign=middle;resizable=0;points=[];autosize=1;strokeColor=none;fillColor=none;" vertex="1" parent="1">
          <mxGeometry x="205" y="-440" width="80" height="40" as="geometry" />
        </mxCell>
        <mxCell id="X0yJgUUjNFbYcKCMV-dW-11" value="" style="html=1;verticalAlign=bottom;endArrow=open;dashed=1;endSize=8;edgeStyle=elbowEdgeStyle;elbow=vertical;curved=0;rounded=0;" edge="1" parent="1">
          <mxGeometry relative="1" as="geometry">
            <mxPoint x="340" y="-440" as="targetPoint" />
            <Array as="points">
              <mxPoint x="435" y="-440" />
            </Array>
            <mxPoint x="510" y="-440" as="sourcePoint" />
            <mxPoint as="offset" />
          </mxGeometry>
        </mxCell>
        <mxCell id="X0yJgUUjNFbYcKCMV-dW-12" value="Mostrar(&quot;No hay stock&quot;)" style="edgeLabel;html=1;align=center;verticalAlign=middle;resizable=0;points=[];" connectable="0" vertex="1" parent="X0yJgUUjNFbYcKCMV-dW-11">
          <mxGeometry y="-4" relative="1" as="geometry">
            <mxPoint y="-16" as="offset" />
          </mxGeometry>
        </mxCell>
        <mxCell id="X0yJgUUjNFbYcKCMV-dW-25" value="Sigue explorando" style="text;html=1;align=center;verticalAlign=middle;resizable=0;points=[];autosize=1;strokeColor=none;fillColor=none;" vertex="1" parent="1">
          <mxGeometry x="360" y="-340" width="120" height="30" as="geometry" />
        </mxCell>
        <mxCell id="X0yJgUUjNFbYcKCMV-dW-26" value="" style="html=1;verticalAlign=bottom;endArrow=block;edgeStyle=elbowEdgeStyle;elbow=vertical;curved=0;rounded=0;" edge="1" parent="1">
          <mxGeometry relative="1" as="geometry">
            <mxPoint x="341" y="-320" as="sourcePoint" />
            <Array as="points">
              <mxPoint x="441" y="-320" />
              <mxPoint x="426" y="-340" />
            </Array>
            <mxPoint x="509" y="-320" as="targetPoint" />
          </mxGeometry>
        </mxCell>
        <mxCell id="FbWIOQJNoMusu_1SkMuZ-1" value="Actualizar carrito" style="shape=note;size=20;whiteSpace=wrap;html=1;" vertex="1" parent="1">
          <mxGeometry x="640" y="-650" width="100" height="100" as="geometry" />
        </mxCell>
        <mxCell id="FbWIOQJNoMusu_1SkMuZ-2" value="" style="endArrow=none;dashed=1;html=1;dashPattern=1 3;strokeWidth=2;rounded=0;entryX=0;entryY=0.5;entryDx=0;entryDy=0;entryPerimeter=0;exitX=1.25;exitY=0.154;exitDx=0;exitDy=0;exitPerimeter=0;" edge="1" parent="1" source="aM9ryv3xv72pqoxQDRHE-6" target="FbWIOQJNoMusu_1SkMuZ-1">
          <mxGeometry width="50" height="50" relative="1" as="geometry">
            <mxPoint x="520" y="-600" as="sourcePoint" />
            <mxPoint x="610" y="-640" as="targetPoint" />
          </mxGeometry>
        </mxCell>
        <mxCell id="FbWIOQJNoMusu_1SkMuZ-4" value="Abrir Carrito" style="html=1;verticalAlign=bottom;endArrow=block;edgeStyle=elbowEdgeStyle;elbow=vertical;curved=0;rounded=0;" edge="1" parent="1">
          <mxGeometry x="-0.0476" relative="1" as="geometry">
            <mxPoint x="340" y="-570" as="sourcePoint" />
            <Array as="points">
              <mxPoint x="440" y="-570" />
              <mxPoint x="425" y="-590" />
            </Array>
            <mxPoint x="508" y="-570" as="targetPoint" />
            <mxPoint as="offset" />
          </mxGeometry>
        </mxCell>
        <mxCell id="FbWIOQJNoMusu_1SkMuZ-5" value="Mostrar Carrito" style="html=1;verticalAlign=bottom;endArrow=open;dashed=1;endSize=8;edgeStyle=elbowEdgeStyle;elbow=vertical;curved=0;rounded=0;" edge="1" parent="1">
          <mxGeometry relative="1" as="geometry">
            <mxPoint x="340" y="-540" as="targetPoint" />
            <Array as="points">
              <mxPoint x="435" y="-540" />
            </Array>
            <mxPoint x="510" y="-540" as="sourcePoint" />
          </mxGeometry>
        </mxCell>
        <mxCell id="FbWIOQJNoMusu_1SkMuZ-6" value="Mostrar(&quot;Producto añadido&amp;nbsp;&lt;div&gt;con éxito&quot;)&lt;/div&gt;" style="html=1;verticalAlign=bottom;endArrow=open;dashed=1;endSize=8;edgeStyle=elbowEdgeStyle;elbow=horizontal;curved=0;rounded=0;" edge="1" parent="1">
          <mxGeometry relative="1" as="geometry">
            <mxPoint x="340" y="-600.5" as="targetPoint" />
            <Array as="points">
              <mxPoint x="435" y="-600.5" />
            </Array>
            <mxPoint x="510" y="-600.5" as="sourcePoint" />
            <mxPoint as="offset" />
          </mxGeometry>
        </mxCell>
        <mxCell id="FbWIOQJNoMusu_1SkMuZ-7" value="" style="html=1;verticalAlign=bottom;endArrow=open;dashed=1;endSize=8;edgeStyle=elbowEdgeStyle;elbow=vertical;curved=0;rounded=0;" edge="1" parent="1">
          <mxGeometry relative="1" as="geometry">
            <mxPoint x="337.5" y="-380" as="targetPoint" />
            <Array as="points">
              <mxPoint x="432.5" y="-380" />
            </Array>
            <mxPoint x="507.5" y="-380" as="sourcePoint" />
            <mxPoint as="offset" />
          </mxGeometry>
        </mxCell>
        <mxCell id="FbWIOQJNoMusu_1SkMuZ-8" value="Mostrar(&quot;Desea recibir un&amp;nbsp;&lt;div&gt;mensaje cuando&lt;/div&gt;&lt;div&gt;el producto este disponible&quot;)&lt;/div&gt;" style="edgeLabel;html=1;align=center;verticalAlign=middle;resizable=0;points=[];" connectable="0" vertex="1" parent="FbWIOQJNoMusu_1SkMuZ-7">
          <mxGeometry y="-4" relative="1" as="geometry">
            <mxPoint x="3" y="-26" as="offset" />
          </mxGeometry>
        </mxCell>
      </root>
    </mxGraphModel>
  </diagram>
</mxfile>
